<?xml version="1.0" encoding="UTF-8" ?>
<!DOCTYPE svg PUBLIC "-//W3C//DTD SVG 1.1//EN" "http://www.w3.org/Graphics/SVG/1.1/DTD/svg11.dtd">
<svg width="694pt" height="695pt" viewBox="0 0 694 695" version="1.1" xmlns="http://www.w3.org/2000/svg">
<g id="#0b5e48fe">
<path fill="#0b5e48" opacity="1.00" d=" M 338.70 22.67 C 345.17 20.68 351.49 23.71 357.43 25.88 C 360.17 47.46 358.76 69.28 359.25 90.97 C 348.98 90.14 338.63 88.79 328.44 91.05 C 329.75 70.82 326.60 50.48 329.46 30.32 C 330.23 25.82 334.96 24.12 338.70 22.67 Z" />
<path fill="#0b5e48" opacity="1.00" d=" M 308.07 106.18 C 330.64 96.18 356.98 96.87 380.00 105.02 C 395.69 111.16 409.67 121.68 419.76 135.19 C 429.60 146.70 434.29 161.43 438.40 175.76 C 427.79 174.22 417.09 174.74 406.61 176.79 C 401.26 162.29 392.33 148.31 378.86 140.15 C 354.74 124.90 319.98 128.32 299.98 148.97 C 291.07 157.04 286.81 168.63 283.60 179.89 C 273.23 180.01 262.86 180.02 252.50 179.96 C 253.15 165.90 258.00 151.89 266.87 140.89 C 272.18 133.76 277.68 126.62 284.56 120.90 C 292.05 115.47 299.80 110.36 308.07 106.18 Z" />
<path fill="#0b5e48" opacity="1.00" d=" M 203.81 189.43 C 245.86 190.69 287.94 189.69 330.00 189.99 C 343.31 190.35 356.74 189.03 370.00 190.54 C 366.13 196.08 360.61 200.24 356.83 205.88 C 352.19 211.47 349.84 218.43 346.90 224.97 C 324.96 225.23 303.01 224.60 281.07 225.18 C 275.03 225.28 268.88 229.33 267.56 235.41 C 265.80 258.23 268.17 281.17 266.33 303.99 C 255.68 304.01 245.03 304.04 234.38 304.03 C 235.52 278.49 234.97 252.92 234.84 227.37 C 224.03 222.12 214.15 214.12 208.94 203.09 C 206.87 198.67 205.52 193.98 203.81 189.43 Z" />
<path fill="#0b5e48" opacity="1.00" d=" M 202.94 316.29 C 221.94 317.42 240.98 316.93 260.00 317.00 C 335.81 317.05 411.62 316.90 487.42 317.07 C 485.11 332.94 473.76 346.25 459.30 352.75 C 458.86 370.05 458.58 387.39 459.69 404.68 C 448.51 403.50 437.27 403.36 426.05 404.02 C 425.96 392.33 426.56 380.58 425.13 368.96 C 424.67 363.63 422.19 358.34 417.94 355.04 C 408.52 346.94 395.19 350.65 383.95 349.88 C 373.25 348.88 363.50 358.04 362.48 368.42 C 361.59 380.06 362.00 391.74 361.99 403.41 C 351.51 404.86 340.81 404.84 330.30 403.72 C 329.93 391.48 330.36 379.23 329.84 367.01 C 329.19 361.42 325.68 356.04 320.97 353.11 C 312.49 347.16 301.62 350.62 292.09 349.58 C 281.65 348.83 270.46 355.20 267.68 365.64 C 266.34 378.38 267.07 391.22 267.00 404.01 C 256.33 404.00 245.67 404.00 235.01 404.00 C 235.00 387.56 235.11 371.12 234.77 354.69 C 223.60 350.04 213.50 341.99 208.16 330.94 C 205.68 326.34 204.34 321.29 202.94 316.29 Z" />
<path fill="#0b5e48" opacity="1.00" d=" M 204.18 414.01 C 236.06 415.40 267.98 414.45 299.88 414.49 C 337.07 413.71 374.25 415.65 411.43 414.59 C 437.03 415.41 462.61 414.10 488.21 414.37 C 485.80 421.76 483.31 429.35 478.67 435.69 C 473.49 442.14 466.43 446.67 459.22 450.53 C 458.62 510.36 459.28 570.20 458.94 630.03 C 458.43 651.24 441.25 670.71 420.27 673.71 C 373.51 674.45 326.74 673.72 279.98 674.08 C 257.41 675.72 235.54 657.35 233.18 634.86 C 230.51 606.98 232.84 578.95 232.06 551.01 C 231.46 517.78 232.48 484.57 232.94 451.37 C 218.28 444.07 206.67 430.40 204.18 414.01 M 283.41 450.52 C 273.16 451.66 264.66 461.54 265.99 471.97 C 265.98 520.32 265.99 568.67 265.99 617.03 C 266.39 622.17 265.52 628.26 269.03 632.61 C 274.49 638.53 282.08 643.65 290.53 642.35 C 328.68 641.37 366.85 642.58 404.99 641.80 C 411.37 642.31 416.92 638.44 421.02 633.99 C 425.79 628.19 424.94 619.94 425.80 613.02 C 426.41 574.69 425.71 536.34 426.07 498.00 C 425.97 487.99 426.56 477.90 425.04 467.97 C 423.75 457.57 413.46 449.13 403.05 449.97 C 363.17 450.33 323.26 449.27 283.41 450.52 Z" />
</g>
<g id="#0eeaf0fc">
<path fill="#0eeaf0" opacity="1.00" d=" M 412.46 186.65 C 426.37 184.66 441.15 185.91 453.83 192.27 C 461.69 197.11 470.23 201.71 475.50 209.58 C 486.30 225.97 493.25 247.02 486.50 266.36 C 478.85 290.85 455.50 309.11 429.99 310.95 C 412.98 312.64 396.15 306.32 382.46 296.59 C 373.44 289.82 367.93 279.38 363.83 269.11 C 358.11 252.40 360.81 233.67 369.02 218.27 C 376.72 201.01 394.71 190.77 412.46 186.65 M 405.14 216.21 C 395.44 222.06 387.08 232.21 387.12 244.03 C 386.45 252.14 386.49 261.06 391.63 267.83 C 407.11 249.75 423.66 232.50 441.83 217.10 C 438.41 214.34 434.20 212.65 429.83 212.29 C 421.55 211.94 412.39 211.44 405.14 216.21 M 410.38 282.43 C 428.13 291.11 452.38 282.40 460.08 264.02 C 465.09 254.33 462.99 243.19 460.03 233.24 C 442.74 248.83 426.77 265.89 410.38 282.43 Z" />
</g>
</svg>
