<?xml version="1.0" encoding="UTF-8" ?>
<!DOCTYPE svg PUBLIC "-//W3C//DTD SVG 1.1//EN" "http://www.w3.org/Graphics/SVG/1.1/DTD/svg11.dtd">
<svg width="1258pt" height="347pt" viewBox="0 0 1258 347" version="1.1" xmlns="http://www.w3.org/2000/svg">
<g id="#f5a2b8fe">
<path fill="#f5a2b8" opacity="1.00" d=" M 746.55 21.59 C 756.15 14.73 767.61 10.83 779.17 8.83 C 791.09 7.99 803.38 8.28 814.66 12.70 C 824.47 16.68 834.09 21.79 841.58 29.41 C 844.93 32.76 848.57 35.86 851.52 39.59 C 853.39 41.47 852.38 44.28 851.76 46.48 C 847.06 61.46 840.70 75.85 834.83 90.37 C 834.33 90.46 833.35 90.65 832.85 90.74 C 831.11 88.11 831.28 84.82 830.69 81.84 C 828.19 64.64 824.01 46.82 813.10 32.86 C 806.71 24.34 796.77 18.54 786.10 17.75 C 779.45 18.66 772.74 21.07 767.96 25.95 C 757.78 35.51 753.38 49.50 751.63 63.00 C 751.09 72.09 750.89 81.40 753.44 90.24 C 757.07 104.67 765.06 117.93 776.01 127.99 C 793.97 146.44 818.01 157.54 835.63 176.36 C 841.33 181.89 845.34 188.83 849.32 195.63 C 857.01 209.60 862.13 225.11 863.50 241.03 C 863.48 246.36 864.61 251.67 863.94 257.00 C 862.95 276.98 856.25 296.91 843.77 312.68 C 834.33 324.65 821.40 334.52 806.24 337.67 C 796.75 340.24 786.84 339.86 777.13 339.42 C 759.62 336.70 742.82 329.20 729.11 317.96 C 722.84 312.89 716.93 307.35 711.52 301.37 C 709.90 300.08 710.67 298.00 711.22 296.39 C 716.18 282.71 721.92 269.33 726.83 255.63 C 728.10 252.20 729.33 248.62 732.01 245.98 C 733.97 250.54 734.13 255.54 734.95 260.37 C 737.31 273.73 741.74 286.74 748.27 298.65 C 753.54 308.81 761.28 317.66 770.59 324.31 C 779.14 330.25 790.33 333.51 800.50 330.08 C 813.36 325.36 822.17 313.37 826.58 300.81 C 830.81 289.41 829.78 277.04 829.39 265.13 C 826.88 248.26 819.80 231.58 807.51 219.51 C 788.27 199.25 761.26 188.40 742.71 167.38 C 731.71 154.24 723.33 138.76 719.32 122.05 C 715.35 105.29 713.83 87.66 717.33 70.68 C 720.57 51.51 730.99 33.38 746.55 21.59 Z" />
<path fill="#f5a2b8" opacity="1.00" d=" M 1139.56 10.30 C 1153.23 8.46 1167.67 9.90 1180.15 16.09 C 1190.72 21.10 1199.03 29.60 1206.76 38.18 C 1217.87 51.40 1227.26 66.16 1233.66 82.24 C 1245.92 111.83 1250.10 144.15 1249.68 176.00 C 1250.00 196.51 1247.34 217.01 1242.56 236.93 C 1236.84 259.26 1228.27 281.11 1215.02 300.09 C 1211.86 304.81 1208.10 309.08 1204.09 313.09 C 1197.08 320.06 1190.25 327.51 1181.42 332.21 C 1174.85 336.15 1167.31 337.83 1159.90 339.36 C 1151.62 340.86 1142.94 340.71 1134.92 338.00 C 1123.31 335.25 1112.51 329.35 1103.98 321.02 C 1087.36 305.62 1074.95 285.98 1067.32 264.70 C 1057.15 236.69 1052.64 206.76 1053.20 177.00 C 1052.51 146.25 1056.61 115.20 1067.33 86.28 C 1072.77 72.23 1079.92 58.86 1088.48 46.46 C 1093.75 38.58 1100.73 32.07 1107.57 25.58 C 1116.71 17.97 1127.57 11.75 1139.56 10.30 M 1145.23 19.70 C 1136.27 21.33 1128.63 27.18 1123.24 34.32 C 1112.01 48.84 1105.74 66.44 1101.19 84.04 C 1090.83 122.38 1088.62 162.53 1091.46 202.02 C 1093.60 229.48 1097.04 257.21 1106.61 283.20 C 1110.84 294.60 1115.77 306.00 1123.51 315.50 C 1127.98 320.47 1132.61 325.75 1138.92 328.41 C 1146.41 331.52 1155.29 331.50 1162.65 327.96 C 1171.97 323.86 1178.91 315.83 1184.12 307.30 C 1194.51 288.81 1201.10 268.40 1205.34 247.68 C 1210.85 220.16 1212.84 192.01 1212.31 163.98 C 1209.99 125.01 1205.73 85.00 1188.66 49.33 C 1184.41 39.89 1177.43 31.90 1169.34 25.55 C 1162.50 20.37 1153.68 18.23 1145.23 19.70 Z" />
<path fill="#f5a2b8" opacity="1.00" d=" M 65.99 17.92 C 64.68 9.24 80.97 8.51 80.91 16.94 C 81.26 26.47 80.63 36.02 81.37 45.53 C 76.24 44.93 71.04 44.62 65.93 45.57 C 66.36 36.34 64.94 27.14 65.99 17.92 Z" />
<path fill="#f5a2b8" opacity="1.00" d=" M 977.44 11.66 C 995.76 11.78 1014.08 11.80 1032.40 11.69 C 1032.93 98.79 1032.48 185.90 1032.56 273.00 C 1032.62 288.97 1031.58 305.80 1038.18 320.75 C 1040.50 326.68 1046.08 330.00 1050.87 333.71 C 1050.47 334.47 1049.69 336.00 1049.29 336.76 C 1031.70 336.56 1014.09 336.54 996.50 336.74 C 995.32 331.57 995.78 326.25 995.73 321.00 C 995.73 277.67 995.74 234.33 995.71 191.00 C 995.67 185.78 995.83 180.55 995.50 175.34 C 969.55 175.54 943.60 175.19 917.65 175.45 C 917.66 213.97 917.70 252.48 917.71 291.00 C 918.60 303.69 918.83 318.07 928.03 327.96 C 930.48 331.20 936.38 331.58 935.93 336.58 C 917.89 336.57 899.86 336.66 881.82 336.57 C 880.60 335.34 880.58 333.63 880.59 332.02 C 880.74 275.02 880.60 218.01 880.66 161.00 C 880.63 123.98 880.77 86.96 880.53 49.95 C 880.08 40.14 878.93 29.42 872.28 21.67 C 869.30 18.09 862.97 17.85 862.16 12.55 C 880.65 12.48 899.16 12.27 917.65 12.63 C 917.49 58.75 917.67 104.87 917.60 150.99 C 917.55 154.16 917.60 157.34 917.98 160.49 C 943.82 160.34 969.66 160.40 995.50 160.49 C 995.63 132.33 995.51 104.17 995.59 76.00 C 995.35 63.94 996.44 51.71 993.83 39.83 C 992.51 33.45 990.64 26.77 986.12 21.89 C 983.76 19.36 980.64 17.79 977.52 16.42 C 977.49 14.83 977.46 13.25 977.44 11.66 Z" />
<path fill="#f5a2b8" opacity="1.00" d=" M 174.13 12.57 C 203.43 12.21 232.74 12.50 262.04 12.50 C 272.87 13.48 283.74 16.16 293.28 21.52 C 301.89 26.22 310.04 32.39 315.28 40.84 C 324.35 54.36 328.62 70.80 328.36 87.00 C 328.22 102.47 324.91 118.28 316.32 131.35 C 309.04 142.12 299.56 151.61 288.02 157.76 C 284.23 159.80 280.10 161.09 276.26 163.03 C 280.05 165.64 284.62 166.58 288.76 168.47 C 300.95 173.54 311.38 182.09 319.77 192.17 C 329.08 204.36 335.41 218.84 337.70 234.02 C 339.11 242.26 338.80 250.66 338.73 258.99 C 338.59 276.66 332.77 294.60 320.97 307.95 C 315.58 313.88 309.93 319.77 302.98 323.87 C 291.04 330.81 277.65 335.21 264.02 337.26 C 234.17 337.63 204.30 337.10 174.44 337.41 C 174.44 335.76 174.42 334.12 174.40 332.49 C 180.96 328.96 184.03 321.73 185.71 314.84 C 187.55 306.70 188.66 298.35 188.49 290.00 C 188.40 210.65 188.60 131.31 188.35 51.97 C 187.45 41.76 186.66 30.87 180.99 22.00 C 179.04 18.47 173.84 17.20 174.13 12.57 M 225.44 23.31 C 225.38 68.43 225.47 113.55 225.50 158.67 C 237.28 159.38 249.33 157.54 259.92 152.16 C 269.19 147.56 276.42 139.58 281.54 130.71 C 290.65 113.90 291.43 94.16 290.17 75.50 C 288.59 61.09 283.93 46.07 273.25 35.76 C 265.17 27.53 253.53 22.76 241.99 23.28 C 236.47 23.27 230.96 23.25 225.44 23.31 M 225.53 170.45 C 225.39 222.52 225.46 274.59 225.46 326.65 C 234.30 326.62 243.15 326.82 251.99 326.52 C 270.27 324.29 285.77 310.57 292.63 293.83 C 303.03 268.63 304.26 239.62 295.68 213.72 C 291.19 199.50 282.32 186.29 269.44 178.44 C 262.12 173.80 253.53 171.74 245.04 170.64 C 238.55 170.20 232.03 170.47 225.53 170.45 Z" />
<path fill="#f5a2b8" opacity="1.00" d=" M 396.72 12.56 C 411.17 12.15 425.65 12.43 440.11 12.38 C 441.78 12.08 442.23 14.25 442.70 15.42 C 447.92 38.54 453.46 61.61 459.18 84.62 C 468.26 122.90 477.71 161.09 486.88 199.34 C 492.20 221.70 497.53 244.05 503.08 266.35 C 507.57 283.51 511.83 300.99 520.34 316.69 C 524.09 323.74 529.82 330.17 537.43 333.05 C 537.98 234.02 537.67 134.98 537.57 35.95 C 537.79 30.89 536.42 25.69 533.27 21.67 C 530.88 18.55 526.92 16.59 525.94 12.52 C 541.02 12.17 556.12 12.38 571.21 12.38 C 586.85 50.95 603.62 89.05 619.75 127.41 C 627.43 145.32 634.64 163.43 642.48 181.27 C 653.13 206.53 663.49 231.92 674.77 256.90 C 677.02 261.52 677.88 266.85 681.23 270.89 C 681.88 254.95 681.32 238.96 681.50 223.00 C 681.45 172.33 681.57 121.67 681.35 71.00 C 680.27 54.14 676.19 36.33 664.46 23.54 C 661.62 20.10 657.04 18.54 654.42 15.00 C 654.47 14.43 654.59 13.29 654.65 12.71 C 670.74 12.20 686.88 12.47 703.00 12.52 C 701.75 17.26 697.90 20.57 695.89 24.92 C 692.11 32.67 691.36 41.50 691.41 50.01 C 691.32 144.02 691.32 238.04 691.34 332.05 C 691.31 333.83 690.95 335.59 690.66 337.34 C 682.30 337.17 673.93 337.24 665.57 337.30 C 661.41 330.12 658.86 322.18 655.54 314.61 C 638.58 274.86 621.81 235.02 604.80 195.29 C 597.61 178.53 590.72 161.64 583.23 145.00 C 576.74 129.55 570.48 114.01 563.62 98.72 C 558.87 87.63 554.59 76.34 549.46 65.41 C 548.46 66.79 548.04 68.32 548.19 70.01 C 548.31 124.34 548.27 178.67 548.27 233.00 C 548.33 248.00 548.14 263.00 548.45 278.00 C 549.39 294.97 554.07 312.46 565.49 325.48 C 567.96 328.40 571.26 330.42 574.03 333.02 C 575.31 334.12 575.04 335.93 574.97 337.43 C 547.65 337.29 520.33 337.48 493.01 337.30 C 487.95 336.82 484.09 332.75 481.35 328.79 C 476.07 319.93 474.09 309.64 471.40 299.81 C 467.16 281.83 462.72 263.89 458.94 245.80 C 458.44 244.22 458.21 241.36 456.03 241.43 C 430.68 241.37 405.32 241.43 379.97 241.39 C 378.35 241.43 376.69 241.34 375.12 241.81 C 373.38 246.47 372.47 251.39 371.18 256.18 C 368.38 267.69 365.52 279.20 363.56 290.89 C 361.50 301.92 361.98 313.87 367.21 323.99 C 369.17 327.94 372.82 330.59 376.53 332.76 C 376.52 333.73 376.49 335.65 376.48 336.62 C 359.93 336.50 343.37 336.79 326.83 336.45 C 328.40 332.42 332.34 330.22 334.97 326.98 C 340.74 320.12 344.26 311.71 347.27 303.36 C 354.23 282.73 358.75 261.40 364.15 240.33 C 370.39 213.67 377.36 187.18 384.23 160.68 C 390.71 132.91 398.48 105.47 404.99 77.71 C 407.08 68.86 409.21 60.02 411.42 51.20 C 412.80 45.29 410.57 39.47 408.99 33.85 C 407.71 29.62 406.34 25.39 404.33 21.45 C 402.58 17.87 399.13 15.64 396.72 12.56 M 416.37 70.35 C 404.65 117.99 392.78 165.60 381.03 213.23 C 379.95 217.64 378.70 222.03 378.21 226.56 C 403.46 226.64 428.71 226.52 453.95 226.67 C 453.39 221.83 452.24 217.09 451.20 212.34 C 444.65 183.63 437.69 155.02 431.20 126.30 C 427.78 112.70 424.40 99.10 421.10 85.47 C 419.95 80.57 418.48 75.70 418.10 70.66 C 417.67 70.58 416.81 70.43 416.37 70.35 Z" />
<path fill="#f5a2b8" opacity="1.00" d=" M 43.57 60.65 C 49.69 55.90 56.55 51.77 64.25 50.27 C 75.46 48.15 87.53 49.68 97.47 55.45 C 109.77 62.00 117.84 74.65 120.70 88.07 C 115.47 87.01 110.16 87.12 104.99 88.47 C 101.93 80.81 97.11 73.35 89.66 69.34 C 78.50 62.96 63.45 64.36 53.56 72.56 C 48.08 76.80 44.95 83.30 43.38 89.92 C 38.16 90.05 32.95 90.01 27.74 89.98 C 28.18 78.35 35.20 68.21 43.57 60.65 Z" />
<path fill="#f5a2b8" opacity="1.00" d=" M 3.32 94.93 C 31.13 95.16 58.94 94.81 86.74 95.11 C 81.90 100.11 77.47 105.56 75.00 112.14 C 64.08 113.12 52.97 112.04 42.00 112.62 C 38.55 112.55 35.10 115.45 35.06 118.98 C 34.81 129.93 35.25 140.89 34.84 151.84 C 29.52 152.12 24.19 151.96 18.87 152.01 C 19.19 139.32 18.87 126.62 19.04 113.92 C 14.70 111.52 10.36 108.66 7.63 104.41 C 5.62 101.54 4.67 98.13 3.32 94.93 Z" />
<path fill="#f5a2b8" opacity="1.00" d=" M 133.37 99.33 C 133.45 99.39 133.60 99.51 133.68 99.57 C 133.60 99.51 133.45 99.39 133.37 99.33 Z" />
<path fill="#f5a2b8" opacity="1.00" d=" M 139.40 105.31 C 139.46 105.40 139.60 105.57 139.67 105.66 C 139.60 105.57 139.46 105.40 139.40 105.31 Z" />
<path fill="#f5a2b8" opacity="1.00" d=" M 2.86 158.23 C 7.23 158.61 11.62 158.50 16.00 158.50 C 59.09 158.49 102.18 158.51 145.27 158.49 C 143.98 166.46 138.39 173.22 131.03 176.39 C 131.05 184.94 130.85 193.50 131.14 202.04 C 125.57 201.87 120.00 201.96 114.43 201.96 C 114.21 195.28 115.45 188.36 113.37 181.88 C 112.15 177.49 107.47 174.72 103.04 174.99 C 98.79 175.04 94.51 174.74 90.27 175.21 C 86.28 176.50 82.86 180.11 82.67 184.44 C 82.23 190.24 82.74 196.07 82.36 201.88 C 77.13 202.00 71.91 202.37 66.68 201.98 C 66.31 196.36 66.59 190.73 66.50 185.10 C 66.65 181.14 64.11 177.23 60.51 175.66 C 55.75 174.52 50.80 175.08 45.96 174.96 C 40.46 174.84 35.21 179.44 35.02 184.99 C 34.91 190.66 35.04 196.34 35.01 202.01 C 29.67 201.99 24.33 201.99 18.99 202.01 C 19.00 193.79 19.00 185.57 18.99 177.35 C 14.15 175.59 10.07 172.16 6.97 168.10 C 4.95 165.12 4.03 161.59 2.86 158.23 Z" />
<path fill="#f5a2b8" opacity="1.00" d=" M 4.27 207.07 C 11.83 207.13 19.41 207.83 26.97 207.26 C 43.32 207.41 59.67 206.84 76.02 207.15 C 84.67 207.67 93.33 207.41 101.99 207.44 C 111.98 207.17 121.99 207.90 131.96 207.09 C 136.54 206.97 141.11 207.78 145.69 207.23 C 143.91 215.17 138.57 222.07 131.03 225.29 C 130.94 255.18 131.07 285.07 130.96 314.95 C 130.73 326.44 120.71 337.02 109.07 337.00 C 86.02 337.02 62.98 336.97 39.94 337.03 C 32.48 337.14 25.54 332.64 21.37 326.66 C 18.27 321.72 17.51 315.72 17.47 309.99 C 17.54 288.99 17.48 267.99 17.48 246.99 C 17.63 239.86 18.70 232.62 17.61 225.54 C 14.45 223.40 11.04 221.42 8.67 218.34 C 6.27 215.35 4.75 211.77 3.52 208.18 C 3.71 207.90 4.09 207.34 4.27 207.07 M 43.27 225.19 C 38.56 225.79 34.31 230.08 34.51 234.96 C 34.50 260.32 34.49 285.68 34.51 311.04 C 34.26 316.32 39.30 320.22 44.04 321.23 C 64.32 320.71 84.67 321.20 104.97 320.94 C 110.81 320.43 114.54 314.59 114.46 309.07 C 114.58 285.70 114.43 262.32 114.53 238.95 C 114.70 234.39 113.33 229.30 109.28 226.70 C 106.35 224.40 102.45 225.07 99.00 224.98 C 80.43 225.16 61.83 224.72 43.27 225.19 Z" />
</g>
<g id="#f3120cfe">
<path fill="#f3120c" opacity="1.00" d=" M 105.62 93.81 C 115.04 91.50 125.69 93.20 133.37 99.33 C 133.45 99.39 133.60 99.51 133.68 99.57 C 135.77 101.29 137.71 103.19 139.40 105.31 C 139.46 105.40 139.60 105.57 139.67 105.66 C 147.88 116.17 147.99 132.18 139.65 142.65 C 132.96 151.19 121.90 156.61 110.97 155.33 C 105.16 154.64 99.42 152.73 94.57 149.40 C 84.63 142.54 79.82 129.24 82.66 117.56 C 85.15 106.24 94.36 96.64 105.62 93.81 M 108.33 106.24 C 100.74 108.01 94.95 115.24 94.64 122.98 C 94.30 126.89 95.66 130.63 97.08 134.19 C 105.39 125.25 113.83 116.41 122.48 107.79 C 118.03 106.00 113.05 104.87 108.33 106.24 M 107.25 140.46 C 107.29 140.89 107.36 141.76 107.39 142.20 C 111.58 142.92 115.95 143.25 120.10 142.18 C 126.85 140.12 132.28 133.98 133.25 126.95 C 133.76 123.27 132.70 119.64 131.36 116.25 C 123.22 124.22 115.50 132.60 107.25 140.46 Z" />
</g>
</svg>
